<?xml version="1.0" encoding="utf-8"?>
<!-- Generator: Adobe Illustrator 25.3.1, SVG Export Plug-In . SVG Version: 6.00 Build 0)  -->
<svg version="1.1" id="Layer_1" xmlns="http://www.w3.org/2000/svg" xmlns:xlink="http://www.w3.org/1999/xlink" x="0px" y="0px"
	 viewBox="0 0 79 29" style="enable-background:new 0 0 79 29;" xml:space="preserve">
<style type="text/css">
	.st0{clip-path:url(#SVGID_2_);}
	.st1{fill:#E9E729;}
	.st2{clip-path:url(#SVGID_4_);}
</style>
<g>
	<defs>
		<rect id="SVGID_1_" width="33.7" height="28.6"/>
	</defs>
	<clipPath id="SVGID_2_">
		<use xlink:href="#SVGID_1_"  style="overflow:visible;"/>
	</clipPath>
	<g class="st0">
		<path class="st1" d="M33.3,21.2c0-1-0.1-1.9-0.5-2.8c-0.4-0.9-0.9-1.7-1.6-2.4c-0.7-0.7-1.5-1.2-2.4-1.5s-1.9-0.4-2.8-0.4
			c0.4-5.7,4.8-10.6,7.8-12.9L32.9,0c-6.2,3.9-14,12-14,20.3c0,4.8,2.7,8.2,7.1,8.2c1,0,1.9-0.2,2.8-0.5c0.9-0.4,1.7-0.9,2.4-1.6
			c0.7-0.7,1.2-1.5,1.6-2.4C33.2,23.2,33.3,22.2,33.3,21.2z M14.4,21.2c0-1-0.1-1.9-0.5-2.8c-0.4-0.9-0.9-1.7-1.6-2.4
			c-0.7-0.7-1.5-1.2-2.5-1.5C9,14.2,8,14.1,7.1,14.2c0.4-5.7,4.8-10.6,7.8-12.9L14,0C7.8,3.9,0,12,0,20.3c0,4.8,2.7,8.2,7.1,8.2
			c1,0,1.9-0.2,2.8-0.5c0.9-0.4,1.7-0.9,2.4-1.6c0.7-0.7,1.2-1.5,1.6-2.4C14.3,23.2,14.5,22.2,14.4,21.2z"/>
	</g>
</g>
<g>
	<defs>
		<rect id="SVGID_3_" x="45" y="0" width="33.7" height="28.6"/>
	</defs>
	<clipPath id="SVGID_4_">
		<use xlink:href="#SVGID_3_"  style="overflow:visible;"/>
	</clipPath>
	<g class="st2">
		<path class="st1" d="M45.4,7.3c0,1,0.1,1.9,0.5,2.8c0.4,0.9,0.9,1.7,1.6,2.4c0.7,0.7,1.5,1.2,2.4,1.5c0.9,0.3,1.9,0.4,2.8,0.4
			C52.4,20.1,48,25,45,27.3l0.9,1.3c6.2-3.9,14-12,14-20.3c0-4.8-2.7-8.2-7.1-8.2c-1,0-1.9,0.2-2.8,0.5c-0.9,0.4-1.7,0.9-2.4,1.6
			c-0.7,0.7-1.2,1.5-1.6,2.4C45.6,5.4,45.4,6.3,45.4,7.3z M64.3,7.3c0,1,0.1,1.9,0.5,2.8c0.4,0.9,0.9,1.7,1.6,2.4
			c0.7,0.7,1.5,1.2,2.5,1.5c0.9,0.3,1.9,0.4,2.9,0.3c-0.4,5.7-4.8,10.6-7.8,12.9l0.8,1.3c6.2-3.9,14-12,14-20.3
			C78.7,3.5,76,0,71.6,0c-1,0-1.9,0.2-2.8,0.5c-0.9,0.4-1.7,0.9-2.4,1.6c-0.7,0.7-1.2,1.5-1.6,2.4C64.4,5.4,64.3,6.3,64.3,7.3z"/>
	</g>
</g>
</svg>
